<svg width="27" height="32" viewBox="0 0 27 32" fill="none" xmlns="http://www.w3.org/2000/svg">
<path d="M3.33342 0.0199708C3.5886 0.0186811 3.84379 0.0173915 4.10671 0.0160628C4.38617 0.0157535 4.66563 0.0155284 4.9451 0.0153811C5.23301 0.014731 5.52092 0.0140509 5.80883 0.0133422C6.41362 0.0121309 7.01839 0.0117574 7.62318 0.0118771C8.39181 0.0118975 9.1604 0.00915298 9.92902 0.00565664C10.5248 0.00338814 11.1205 0.00299969 11.7163 0.00310596C11.9992 0.00286992 12.2821 0.00199011 12.565 0.00041089C16.3721 -0.0188278 19.321 0.632185 22.3114 3.08151C22.5076 3.23942 22.5076 3.23942 22.7078 3.40052C24.6842 5.17126 26.0518 8.17385 26.2209 10.7907C26.3453 14.2532 25.4317 17.5164 23.0947 20.1375C21.0341 22.3212 18.2462 23.7146 15.2363 23.9025C14.9479 23.8905 14.6596 23.8738 14.3717 23.8527C11.2156 23.6783 9.19497 25.1499 6.70183 26.937C5.97507 27.4567 5.23144 27.9478 4.48474 28.4381C4.25375 28.5929 4.02291 28.7479 3.79224 28.9032C3.03832 29.4085 2.27814 29.9039 1.51574 30.3964C1.394 30.4754 1.27226 30.5545 1.14683 30.636C0.301626 31.1797 0.301626 31.1797 0.0754528 31.1797C0.0612828 27.4317 0.0505903 23.6837 0.0440319 19.9356C0.0409056 18.1953 0.036644 16.455 0.0297036 14.7147C0.0236569 13.1978 0.0197463 11.6809 0.0183944 10.1639C0.0176042 9.36079 0.0157484 8.5577 0.0113343 7.75458C0.00721161 6.99832 0.00594968 6.24211 0.00686029 5.48584C0.00661447 5.07665 0.00335461 4.66747 0 4.2583C0.000833647 4.01341 0.00166729 3.76851 0.0025262 3.5162C0.00196719 3.30415 0.00140799 3.0921 0.000832041 2.87362C0.13774 1.77153 0.649886 0.960722 1.49047 0.25148C2.15117 0.0312473 2.63797 0.022355 3.33342 0.0199708Z" fill="#007AFF"/>
<path d="M9.25416 6.83413C9.52336 6.82833 9.52336 6.82833 9.79799 6.82241C9.9913 6.82173 10.1846 6.82106 10.3838 6.82036C10.5829 6.81835 10.782 6.81633 10.9872 6.81425C11.4084 6.81118 11.8297 6.80975 12.2509 6.80985C12.8957 6.80853 13.5399 6.79751 14.1847 6.78601C14.5938 6.78424 15.003 6.78303 15.4121 6.78246C15.605 6.7781 15.7979 6.77375 15.9967 6.76926C16.5125 6.7746 16.9607 6.7914 17.4597 6.92223C18.1212 7.65815 18.3896 8.36984 18.622 9.3227C18.671 9.51813 18.72 9.71357 18.7704 9.91492C18.8048 10.0614 18.8392 10.2078 18.8747 10.3587C19.0331 10.3837 19.1915 10.4087 19.3548 10.4345C19.8854 10.5608 19.8854 10.5608 20.2897 10.9651C20.3794 11.5632 20.3552 12.1678 20.3529 12.7718C20.3561 12.9384 20.3594 13.1051 20.3627 13.2768C20.3629 13.4372 20.363 13.5975 20.3631 13.7628C20.3637 13.9095 20.3643 14.0562 20.3649 14.2073C20.268 14.7181 20.0929 14.8985 19.6832 15.2102C19.14 15.2481 19.14 15.2481 18.6725 15.2102C18.6767 15.4728 18.6809 15.7355 18.6852 16.0061C18.6895 16.2799 18.687 16.554 18.6725 16.8273C18.3072 17.1927 17.762 17.0645 17.2701 17.0674C17.0515 17.0703 16.8329 17.0731 16.6076 17.0761C16.0446 17.0295 16.0446 17.0295 15.6403 16.6252C15.6403 16.1582 15.6403 15.6913 15.6403 15.2102C13.8392 15.2102 12.0381 15.2102 10.1824 15.2102C10.1824 15.6771 10.1824 16.1441 10.1824 16.6252C9.77813 17.0295 9.77813 17.0295 9.21513 17.0761C8.9965 17.0732 8.77788 17.0703 8.55263 17.0674C8.22391 17.0654 8.22391 17.0654 7.88855 17.0634C7.35239 17.0295 7.35239 17.0295 7.15025 16.8273C7.12171 16.2875 7.14166 15.7511 7.15025 15.2102C6.99598 15.2227 6.84172 15.2352 6.68279 15.2481C6.13952 15.2102 6.13952 15.2102 5.80694 14.9572C5.47125 14.5239 5.45742 14.3056 5.45965 13.7628C5.45978 13.6024 5.45991 13.442 5.46004 13.2768C5.4633 13.1101 5.46656 12.9435 5.46991 12.7718C5.46926 12.6044 5.46861 12.437 5.46794 12.2645C5.47909 11.0191 5.47909 11.0191 5.93737 10.5608C6.06845 10.5478 6.19952 10.5348 6.33456 10.5214C6.82062 10.3844 6.82062 10.3844 7.02469 9.7412C7.10365 9.48636 7.1826 9.23151 7.26395 8.96895C7.92636 6.85358 7.92636 6.85358 9.25416 6.83413Z" fill="#FBF8FD"/>
<path d="M9.17209 11.5716C9.6318 11.9996 9.76139 12.2798 9.86697 12.8981C9.77853 13.3909 9.77853 13.3909 9.45004 13.7699C8.80018 14.0777 8.43665 14.002 7.75707 13.7951C7.35278 13.1887 7.35278 13.1887 7.39069 12.6833C7.70255 11.7238 8.15391 11.3934 9.17209 11.5716Z" fill="#007AFF"/>
<path d="M17.2701 11.6095C17.8639 11.7737 17.8639 11.7737 18.2682 12.178C18.3357 12.8121 18.3751 13.2222 18.0282 13.7699C17.5294 14.0795 17.2282 14.0839 16.6511 13.9973C16.2847 13.7699 16.2847 13.7699 16.0446 13.3909C15.9644 12.7488 15.9437 12.3518 16.2721 11.7863C16.6511 11.5716 16.6511 11.5716 17.2701 11.6095Z" fill="#007AFF"/>
</svg>
